# xmcd
#
# Track frame offsets:
#	150
#	14105
#	27924
#	43807
#	57741
#	72184
#	85319
#	99991
#	115660
#	128899
#	141650
#	155184
#
# Disc length: 2241 seconds
#
# Revision: 0
# Processed by: cddbd v1.5.2PL0 Copyright (c) Steve Scherf et al.
# Submitted via: dBpowerAMP V4.0
#
DISCID=b408bf0c
DTITLE=Ricky Skaggs and Kentucky Thunder - Honoring the Fathers Of Bluegrass
DYEAR=2008
DGENRE=Bluegrass
TTITLE0=Goin' back to old Kentucky
TTITLE1=When you're Lonely
TTITLE2=Toy Heart
TTITLE3=It's mighty dark to Travel
TTITLE4=Mother's Only Sleeping
TTITLE5=Bluegrass Breakdown
TTITLE6=Little Cabin home on the hill
TTITLE7=Mansions For me
TTITLE8=Sweetheart you done me wrong
TTITLE9=Why did you wander
TTITLE10=Remember the Cross
TTITLE11=The Old Crossroad
EXTD=
EXTT0=
EXTT1=
EXTT2=
EXTT3=
EXTT4=
EXTT5=
EXTT6=
EXTT7=
EXTT8=
EXTT9=
EXTT10=
EXTT11=
PLAYORDER=
